<svg xmlns="http://www.w3.org/2000/svg" width="74" height="20">
    <path fill="#333" fill-rule="evenodd" d="M72.275 7.853h-1.718v6.107c0 .953-.774 1.734-1.72 1.734a1.732 1.732 0 0 1-1.719-1.734V7.853h-1.719a1.73 1.73 0 0 1-1.718-1.734 1.73 1.73 0 0 1 1.718-1.734h1.719V1.749c0-.954.774-1.735 1.719-1.735.946 0 1.72.781 1.72 1.735v2.636h1.718c.946 0 1.719.78 1.719 1.734s-.773 1.734-1.719 1.734zm-13.693 1.18c-.596.603-.904 1.478-.918 2.579v2.311c0 .954-.774 1.734-1.72 1.734-.944 0-1.718-.78-1.718-1.734V6.119c0-.954.774-1.734 1.718-1.734.946 0 1.72.78 1.72 1.734v.46c.208-.391.452-.739.71-1.062.932-1.165 1.685-1.132 1.868-1.132.949 0 1.719.777 1.719 1.734 0 1.035-.729 1.609-1.817 1.921-.594.171-1.125.553-1.562.993zm-11.663 6.662c-3.086 0-5.588-2.524-5.588-5.637 0-3.114 2.502-5.638 5.588-5.638 3.086 0 5.588 2.524 5.588 5.638 0 3.113-2.502 5.637-5.588 5.637zm0-7.799a2.152 2.152 0 0 0-2.143 2.162c0 1.194.959 2.161 2.143 2.161a2.152 2.152 0 0 0 2.143-2.161c0-1.194-.96-2.162-2.143-2.162zm-12.958 7.856a5.543 5.543 0 0 1-2.15-.433v2.943c0 .954-.773 1.734-1.719 1.734-.945 0-1.719-.78-1.719-1.734V6.138c0-.953.774-1.734 1.719-1.734.552 0 1.04.27 1.355.681a5.527 5.527 0 0 1 2.514-.607c3.087 0 5.589 2.523 5.589 5.637 0 3.113-2.502 5.637-5.589 5.637zm0-7.799a2.152 2.152 0 0 0-2.142 2.162c0 1.194.959 2.162 2.142 2.162a2.152 2.152 0 0 0 2.143-2.162 2.152 2.152 0 0 0-2.143-2.162zm-9.026 7.742a1.727 1.727 0 0 1-1.719-1.734V9.547c0-.958-.769-1.735-1.719-1.735-.949 0-1.718.777-1.718 1.735v4.414c0 .958-.77 1.734-1.72 1.734a1.727 1.727 0 0 1-1.719-1.734V9.547c0-.958-.769-1.735-1.718-1.735-.95 0-1.719.777-1.719 1.735v4.414c0 .958-.77 1.734-1.72 1.734a1.727 1.727 0 0 1-1.719-1.734V9.547h.003c0-2.872 2.308-5.2 5.155-5.2 1.322 0 2.525.507 3.437 1.333a5.108 5.108 0 0 1 3.438-1.333c2.847 0 5.154 2.328 5.154 5.2h.004v4.414c0 .958-.77 1.734-1.72 1.734zM6.886 7.815c-.95 0-1.719-.776-1.719-1.734s.769-1.734 1.719-1.734c.949 0 1.719.776 1.719 1.734s-.77 1.734-1.719 1.734zm-5.157 7.807A1.732 1.732 0 0 1 .01 13.888V6.084c0-.954.773-1.734 1.719-1.734.945 0 1.719.78 1.719 1.734v7.804c0 .953-.774 1.734-1.719 1.734zm0-12.155A1.727 1.727 0 0 1 .01 1.733C.01.775.78-.001 1.729-.001c.949 0 1.719.776 1.719 1.734 0 .957-.77 1.734-1.719 1.734z"/>
</svg>
